<svg xmlns="http://www.w3.org/2000/svg" viewBox="0 0 280 200"><rect width="280" height="200" rx="20" fill="#f5e9d3"/><circle cx="140" cy="103" r="76" fill="#fff" opacity=".24"/><g stroke="#b88a42" stroke-width="3.5" stroke-linecap="round" stroke-linejoin="round" fill="none"><path d="M63 68q39-14 77 6q38-20 77-6v87q-38-14-77 3q-39-17-77-3z" fill="#fff"/><path d="M140 74v84M79 91l43 7m-43 12l43 7m-43 12l31 6" opacity=".6"/><path d="M193 32q-51 16-44 63q41-8 44-63z" fill="#d8b778"/><path d="M186 43l-43 70"/><path d="M158 128h38m-38 13h27"/></g></svg>